<svg width="1920" height="1080" viewBox="0 0 1920 1080" fill="none" xmlns="http://www.w3.org/2000/svg">
<path d="M920 1080L934.737 1054.26C949.474 1028.34 978.947 976.86 1001.05 925.56C1023.16 874.26 1037.89 823.14 1055.16 771.84C1072.21 720.54 1092 669.06 1087.37 617.4C1082.74 565.74 1054.11 514.26 1030.53 462.6C1006.95 410.94 988.842 359.46 968.421 308.16C948 256.86 925.684 205.74 924.842 154.44C924.211 103.14 945.263 51.66 955.789 25.74L966.316 0H1920V25.74C1920 51.66 1920 103.14 1920 154.44C1920 205.74 1920 256.86 1920 308.16C1920 359.46 1920 410.94 1920 462.6C1920 514.26 1920 565.74 1920 617.4C1920 669.06 1920 720.54 1920 771.84C1920 823.14 1920 874.26 1920 925.56C1920 976.86 1920 1028.34 1920 1054.26V1080H920Z" fill="black"/>
</svg>
