<svg width="202" height="72" viewBox="0 0 202 72" fill="none" xmlns="http://www.w3.org/2000/svg">
<path d="M49.5392 17.5894C48.5743 13.9968 46.9851 10.4587 41.6497 10.4587C37.2226 10.4587 35.69 13.5614 35.69 16.3919C35.69 20.1477 38.1875 22.0528 42.8984 24.3934C49.7095 27.7682 52.661 30.2721 52.661 35.4431C52.661 41.1585 47.496 45.5131 40.174 45.5131C37.1871 45.445 34.2405 44.8356 31.4899 43.7168C30.8208 41.0247 30.3092 38.2988 29.9573 35.552L31.7169 35.1165C32.8521 38.7635 35.3495 43.4991 41.2525 43.4991C45.339 43.4991 47.8365 40.7775 47.8365 37.2394C47.8365 33.0481 45.5094 31.3607 40.5145 28.748C34.5549 25.6453 31.2061 23.0326 31.2061 17.9704C31.2061 13.1259 35.4063 8.55359 42.8984 8.55359C46.077 8.55359 49.1987 9.37007 50.3906 9.5878C50.6177 11.5474 50.8447 13.7247 51.2988 17.2628L49.5392 17.5894Z" fill="black"/>
<path d="M179.137 10.8397C175.505 11.2207 174.313 11.765 174.143 14.2689C174.085 16.0107 173.972 18.2969 173.972 23.3591V45.1863H171.816L147.517 16.7183V30.3264C147.517 35.2253 147.687 37.6747 147.8 39.2532C147.915 42.0293 149.333 42.8458 153.42 43.1724V44.6856H139.627V43.1615C143.147 42.8893 144.508 42.0728 144.736 39.4057C144.906 37.6638 145.019 35.2144 145.019 30.2611V16.3809C145.019 14.8568 144.906 13.9858 143.885 12.7883C142.806 11.4275 141.614 11.1009 138.833 10.8288V9.30469H147.346L171.418 36.684V23.3591C171.418 18.2969 171.305 15.9563 171.134 14.3233C170.964 11.8739 169.653 11.1118 165.112 10.8397V9.30469H179.137V10.8397Z" fill="black"/>
<path d="M0 49.922H85.1386" stroke="black" stroke-miterlimit="10"/>
<path d="M116.861 49.922H202" stroke="black" stroke-miterlimit="10"/>
<path d="M65.3978 0.595581L100.889 71.3573H101.014L136.164 0.726218V0.595581H65.3978ZM118.57 10.4587L100.974 45.7742H100.912L83.1861 10.3934H118.57V10.4587Z" fill="black"/>
<path d="M65.2161 61.2221C65.1464 60.9555 65.0435 60.6979 64.9097 60.4547C64.7564 60.2043 64.66 60.1389 64.1263 60.1389H63.1614V64.6459C63.1614 65.3699 63.2409 65.4679 64.1548 65.5277V65.7836H61.3509V65.5277C62.2477 65.4679 62.3215 65.3753 62.3215 64.6459V60.1389H61.4473C60.9138 60.1389 60.7605 60.1988 60.596 60.471C60.4659 60.7114 60.3595 60.9628 60.2781 61.2221H59.9886C60.0453 60.6778 60.1022 60.0736 60.1306 59.5565H60.3576C60.4995 59.7797 60.6073 59.7688 60.8741 59.7688H64.6939C64.7889 59.7848 64.8868 59.7732 64.9748 59.7354C65.0628 59.6975 65.137 59.6352 65.1877 59.5565H65.4205C65.4205 59.992 65.4602 60.6452 65.5056 61.1895L65.2161 61.2221Z" fill="black"/>
<path d="M74.1956 64.3138C74.1387 64.5533 73.8777 65.5058 73.7812 65.7834H69.0929V65.5276C69.9897 65.4623 70.0578 65.3752 70.0578 64.6186V60.9662C70.0578 60.1388 69.95 60.0953 69.2291 60.03V59.7687H72.1806C73.083 59.7687 73.4634 59.7687 73.5769 59.7687C73.5769 59.9973 73.628 60.694 73.662 61.1839L73.3726 61.2275C73.3069 60.9827 73.2097 60.7468 73.083 60.5253C72.9298 60.2205 72.7084 60.1551 72.1295 60.1551H71.2158C70.9149 60.1551 70.8979 60.1551 70.8979 60.4545V62.4957H71.9649C72.6914 62.4957 72.7368 62.3596 72.856 61.7282H73.1625V63.6334H72.8674C72.7425 62.9693 72.663 62.8768 71.9706 62.8768H70.8921V64.7166C70.8921 65.3643 71.1022 65.4187 71.5847 65.4296H72.4815C73.049 65.4296 73.1681 65.348 73.3782 65.1085C73.5872 64.8446 73.7625 64.5576 73.9004 64.2539L74.1956 64.3138Z" fill="black"/>
<path d="M84.4802 60.03C83.68 60.1062 83.6004 60.1497 83.6004 60.9281V64.6349C83.6004 65.4133 83.6913 65.4405 84.4802 65.5276V65.7834H81.8976V65.5276C82.6979 65.4351 82.7717 65.4133 82.7717 64.6349V62.7842H79.474V64.6349C79.474 65.4024 79.5478 65.4351 80.3425 65.5276V65.7834H77.7656V65.5276C78.5489 65.4405 78.634 65.4133 78.634 64.6349V60.9281C78.634 60.1497 78.5489 60.1062 77.7656 60.03V59.7687H80.3425V60.03C79.5705 60.0953 79.474 60.1606 79.474 60.9281V62.3978H82.7717V60.9281C82.7717 60.1606 82.6695 60.0953 81.8976 60.03V59.7687H84.4802V60.03Z" fill="black"/>
<path d="M121.243 59.6381C121.659 59.6351 122.072 59.7125 122.456 59.8656C122.84 60.0187 123.188 60.2445 123.48 60.5295C123.771 60.8144 124 61.1528 124.152 61.5243C124.304 61.8959 124.376 62.2929 124.365 62.6919C124.365 64.6841 122.957 65.9252 121.181 65.9252C120.756 65.9333 120.334 65.8589 119.94 65.7061C119.546 65.5534 119.189 65.3257 118.89 65.0365C118.59 64.7475 118.355 64.4032 118.199 64.0245C118.043 63.6458 117.968 63.2406 117.979 62.8333C117.964 62.4153 118.037 61.9986 118.195 61.6086C118.353 61.2185 118.591 60.8633 118.897 60.5645C119.202 60.2656 119.567 60.0294 119.971 59.8702C120.374 59.711 120.807 59.632 121.243 59.6381ZM121.05 59.9811C119.966 59.9811 118.984 60.852 118.984 62.5829C118.984 64.314 119.966 65.5714 121.34 65.5714C122.503 65.5714 123.383 64.7385 123.383 62.9532C123.383 61.0153 122.31 59.9811 121.05 59.9811Z" fill="black"/>
<path d="M134.78 60.0301C134.167 60.0682 133.946 60.2152 133.928 60.6397C133.928 60.852 133.9 61.2439 133.9 62.0931V63.0946C133.9 64.0363 133.781 64.7602 133.225 65.3209C132.987 65.531 132.706 65.692 132.4 65.794C132.095 65.8961 131.771 65.937 131.449 65.9142C130.887 65.9391 130.332 65.7903 129.865 65.4896C129.298 65.0651 129.008 64.401 129.008 63.3396V60.9826C129.008 60.1498 128.929 60.0954 128.157 60.0301V59.7688H130.7V60.0301C129.921 60.0736 129.847 60.1498 129.847 60.9826V63.296C129.847 64.6459 130.511 65.3862 131.67 65.3862C133.043 65.3862 133.474 64.5752 133.474 63.0347V62.1039C133.474 61.2548 133.446 60.901 133.429 60.6506C133.4 60.2369 133.174 60.1063 132.464 60.041V59.7797H134.78V60.0301ZM131.057 58.5495C131.057 58.6756 131.005 58.7966 130.912 58.8862C130.82 58.9759 130.694 59.027 130.563 59.0285C130.431 59.0271 130.305 58.9762 130.211 58.8866C130.118 58.7971 130.065 58.6761 130.063 58.5495C130.062 58.42 130.113 58.295 130.206 58.2014C130.3 58.1078 130.427 58.053 130.563 58.0487C130.63 58.0494 130.696 58.063 130.758 58.0887C130.819 58.1145 130.875 58.1518 130.921 58.1985C130.967 58.2452 131.002 58.3004 131.026 58.3608C131.049 58.4211 131.06 58.4852 131.057 58.5495ZM132.987 58.5495C132.983 58.6448 132.95 58.737 132.893 58.8146C132.835 58.8921 132.755 58.9517 132.662 58.9857C132.569 59.0197 132.468 59.0267 132.371 59.0058C132.273 58.9848 132.185 58.9369 132.117 58.868C132.048 58.799 132.002 58.7123 131.984 58.6184C131.967 58.5246 131.978 58.4278 132.019 58.3404C132.058 58.253 132.123 58.1786 132.207 58.1267C132.29 58.0748 132.388 58.0477 132.487 58.0487C132.555 58.0479 132.623 58.0604 132.685 58.0855C132.748 58.1106 132.805 58.1477 132.852 58.1946C132.899 58.2415 132.936 58.2972 132.96 58.3581C132.984 58.4192 132.996 58.4843 132.992 58.5495H132.987Z" fill="black"/>
</svg>
