<svg width="202" height="72" viewBox="0 0 202 72" fill="none" xmlns="http://www.w3.org/2000/svg">
<path d="M49.5392 17.2912C48.5743 13.6358 46.9851 10.0358 41.6497 10.0358C37.2226 10.0358 35.69 13.1927 35.69 16.0727C35.69 19.8943 38.1875 21.8327 42.8984 24.2143C49.7095 27.6481 52.661 30.1958 52.661 35.4573C52.661 41.2727 47.496 45.7035 40.174 45.7035C37.1871 45.6343 34.2405 45.0142 31.4899 43.8758C30.8208 41.1366 30.3092 38.363 29.9573 35.5681L31.7169 35.125C32.8521 38.8358 35.3495 43.6543 41.2525 43.6543C45.339 43.6543 47.8365 40.885 47.8365 37.285C47.8365 33.0204 45.5094 31.3035 40.5145 28.645C34.5549 25.4881 31.2061 22.8296 31.2061 17.6789C31.2061 12.7496 35.4063 8.09729 42.8984 8.09729C46.077 8.09729 49.1987 8.92806 50.3906 9.1496C50.6177 11.1435 50.8447 13.3589 51.2988 16.9589L49.5392 17.2912Z" fill="white"/>
<path d="M179.137 10.4233C175.505 10.811 174.313 11.3648 174.143 13.9125C174.085 15.6848 173.972 18.011 173.972 23.1618V45.371H171.816L147.517 16.4048V30.251C147.517 35.2356 147.687 37.7279 147.8 39.3341C147.915 42.1587 149.333 42.9894 153.42 43.3218V44.8614H139.627V43.3107C143.147 43.0338 144.508 42.203 144.736 39.4891C144.906 37.7168 145.019 35.2245 145.019 30.1845V16.0614C145.019 14.5107 144.906 13.6245 143.885 12.4061C142.806 11.0214 141.614 10.6891 138.833 10.4122V8.86145H147.346L171.418 36.7199V23.1618C171.418 18.011 171.305 15.6294 171.134 13.9679C170.964 11.4756 169.653 10.7002 165.112 10.4233V8.86145H179.137V10.4233Z" fill="white"/>
<path d="M0 50.1896H85.1386" stroke="white" stroke-miterlimit="10"/>
<path d="M116.861 50.1896H202" stroke="white" stroke-miterlimit="10"/>
<path d="M65.3978 0L100.889 72H101.014L136.164 0.132923V0H65.3978ZM118.57 10.0357L100.974 45.9692H100.912L83.1861 9.96923H118.57V10.0357Z" fill="white"/>
<path d="M65.2161 61.6874C65.1464 61.4162 65.0435 61.154 64.9097 60.9065C64.7564 60.6518 64.66 60.5853 64.1263 60.5853H63.1614V65.1711C63.1614 65.9078 63.2409 66.0075 64.1548 66.0684V66.3287H61.3509V66.0684C62.2477 66.0075 62.3215 65.9133 62.3215 65.1711V60.5853H61.4473C60.9138 60.5853 60.7605 60.6462 60.596 60.9231C60.4659 61.1677 60.3595 61.4236 60.2781 61.6874H59.9886C60.0453 61.1336 60.1022 60.5188 60.1306 59.9927H60.3576C60.4995 60.2198 60.6073 60.2087 60.8741 60.2087H64.6939C64.7889 60.225 64.8868 60.2131 64.9748 60.1747C65.0628 60.1361 65.137 60.0728 65.1877 59.9927H65.4205C65.4205 60.4358 65.4602 61.1004 65.5056 61.6542L65.2161 61.6874Z" fill="white"/>
<path d="M74.1956 64.8331C74.1387 65.0768 73.8777 66.046 73.7812 66.3285H69.0929V66.0682C69.9897 66.0017 70.0578 65.9131 70.0578 65.1433V61.427C70.0578 60.5851 69.95 60.5408 69.2291 60.4743V60.2085H72.1806C73.083 60.2085 73.4634 60.2085 73.5769 60.2085C73.5769 60.4411 73.628 61.15 73.662 61.6485L73.3726 61.6928C73.3069 61.4438 73.2097 61.2038 73.083 60.9783C72.9298 60.6682 72.7084 60.6017 72.1295 60.6017H71.2158C70.9149 60.6017 70.8979 60.6017 70.8979 60.9063V62.9833H71.9649C72.6914 62.9833 72.7368 62.8448 72.856 62.2023H73.1625V64.1408H72.8674C72.7425 63.4651 72.663 63.371 71.9706 63.371H70.8921V65.243C70.8921 65.902 71.1022 65.9574 71.5847 65.9685H72.4815C73.049 65.9685 73.1681 65.8854 73.3782 65.6417C73.5872 65.3732 73.7625 65.0812 73.9004 64.7722L74.1956 64.8331Z" fill="white"/>
<path d="M84.4802 60.4743C83.68 60.5519 83.6004 60.5962 83.6004 61.3882V65.1599C83.6004 65.9519 83.6913 65.9796 84.4802 66.0682V66.3285H81.8976V66.0682C82.6979 65.974 82.7717 65.9519 82.7717 65.1599V63.2768H79.474V65.1599C79.474 65.9408 79.5478 65.974 80.3425 66.0682V66.3285H77.7656V66.0682C78.5489 65.9796 78.634 65.9519 78.634 65.1599V61.3882C78.634 60.5962 78.5489 60.5519 77.7656 60.4743V60.2085H80.3425V60.4743C79.5705 60.5408 79.474 60.6073 79.474 61.3882V62.8836H82.7717V61.3882C82.7717 60.6073 82.6695 60.5408 81.8976 60.4743V60.2085H84.4802V60.4743Z" fill="white"/>
<path d="M121.243 60.0758C121.659 60.0727 122.072 60.1514 122.456 60.3072C122.84 60.463 123.188 60.6928 123.48 60.9827C123.771 61.2726 124 61.6169 124.152 61.995C124.304 62.373 124.376 62.777 124.365 63.183C124.365 65.21 122.957 66.4728 121.181 66.4728C120.756 66.4811 120.334 66.4053 119.94 66.2499C119.546 66.0945 119.189 65.8628 118.89 65.5686C118.59 65.2745 118.355 64.9243 118.199 64.5389C118.043 64.1535 117.968 63.7412 117.979 63.3268C117.964 62.9015 118.037 62.4776 118.195 62.0807C118.353 61.6838 118.591 61.3224 118.897 61.0183C119.202 60.7142 119.567 60.4739 119.971 60.3119C120.374 60.1499 120.807 60.0696 121.243 60.0758ZM121.05 60.4247C119.966 60.4247 118.984 61.3108 118.984 63.0721C118.984 64.8334 119.966 66.1128 121.34 66.1128C122.503 66.1128 123.383 65.2654 123.383 63.4488C123.383 61.477 122.31 60.4247 121.05 60.4247Z" fill="white"/>
<path d="M134.78 60.4745C134.167 60.5133 133.946 60.6629 133.928 61.0949C133.928 61.3109 133.9 61.7096 133.9 62.5736V63.5927C133.9 64.5509 133.781 65.2875 133.225 65.8579C132.987 66.0717 132.706 66.2355 132.4 66.3393C132.095 66.4432 131.771 66.4848 131.449 66.4616C130.887 66.487 130.332 66.3356 129.865 66.0296C129.298 65.5976 129.008 64.9219 129.008 63.8419V61.4438C129.008 60.5964 128.929 60.541 128.157 60.4745V60.2087H130.7V60.4745C129.921 60.5188 129.847 60.5964 129.847 61.4438V63.7976C129.847 65.1712 130.511 65.9244 131.67 65.9244C133.043 65.9244 133.474 65.0992 133.474 63.5318V62.5847C133.474 61.7207 133.446 61.3607 133.429 61.1059C133.4 60.685 133.174 60.5521 132.464 60.4856V60.2198H134.78V60.4745ZM131.057 58.9681C131.057 59.0963 131.005 59.2195 130.912 59.3107C130.82 59.402 130.694 59.4539 130.563 59.4555C130.431 59.454 130.305 59.4022 130.211 59.311C130.118 59.22 130.065 59.0969 130.063 58.9681C130.062 58.8363 130.113 58.7091 130.206 58.6138C130.3 58.5186 130.427 58.4629 130.563 58.4585C130.63 58.4592 130.696 58.473 130.758 58.4992C130.819 58.5254 130.875 58.5634 130.921 58.611C130.967 58.6585 131.002 58.7146 131.026 58.776C131.049 58.8374 131.06 58.9026 131.057 58.9681ZM132.987 58.9681C132.983 59.065 132.95 59.1588 132.893 59.2378C132.835 59.3167 132.755 59.3773 132.662 59.4119C132.569 59.4465 132.468 59.4536 132.371 59.4323C132.273 59.4109 132.185 59.3622 132.117 59.2921C132.048 59.222 132.002 59.1337 131.984 59.0382C131.967 58.9427 131.978 58.8442 132.019 58.7553C132.058 58.6663 132.123 58.5907 132.207 58.5378C132.29 58.485 132.388 58.4574 132.487 58.4585C132.555 58.4577 132.623 58.4704 132.685 58.496C132.748 58.5215 132.805 58.5592 132.852 58.607C132.899 58.6547 132.936 58.7113 132.96 58.7733C132.984 58.8355 132.996 58.9017 132.992 58.9681H132.987Z" fill="white"/>
</svg>
